<?xml version="1.0" standalone="no"?>
<!DOCTYPE svg PUBLIC "-//W3C//DTD SVG 20010904//EN"
 "http://www.w3.org/TR/2001/REC-SVG-20010904/DTD/svg10.dtd">
<svg version="1.0" xmlns="http://www.w3.org/2000/svg"
 width="434.000000pt" height="434.000000pt" viewBox="0 0 434.000000 434.000000"
 preserveAspectRatio="xMidYMid meet">

<g transform="translate(0.000000,434.000000) scale(0.100000,-0.100000)"
fill="#000000" stroke="none">
<path d="M2589 4328 c-9 -7 -21 -46 -27 -86 -15 -88 -39 -139 -99 -203 -57
-61 -127 -96 -223 -112 -68 -11 -75 -15 -84 -40 -14 -39 9 -58 85 -69 171 -23
294 -145 321 -316 12 -79 21 -92 59 -92 34 0 44 17 52 88 18 162 157 300 319
319 65 7 84 16 91 43 9 35 -22 57 -98 70 -170 28 -293 153 -311 315 -9 83 -44
117 -85 83z m121 -368 c30 -31 66 -64 80 -73 17 -12 21 -20 12 -23 -32 -14
-120 -97 -147 -138 -16 -25 -33 -46 -37 -46 -3 0 -16 15 -27 33 -24 39 -115
128 -150 146 -23 13 -23 13 26 46 53 36 100 84 129 135 l19 32 20 -29 c11 -15
45 -53 75 -83z"/>
<path d="M1236 3968 c-9 -12 -16 -41 -16 -63 0 -146 -125 -336 -268 -409 -63
-32 -152 -56 -208 -56 -54 0 -82 -28 -68 -68 7 -21 18 -28 54 -34 25 -4 72
-13 105 -19 203 -37 384 -251 385 -456 0 -44 25 -83 53 -83 34 0 49 27 57 101
20 176 114 315 266 396 54 29 89 38 224 61 36 6 47 13 54 34 14 40 -14 68 -68
68 -91 0 -201 42 -292 111 -99 76 -183 234 -184 344 0 59 -21 95 -55 95 -13 0
-31 -10 -39 -22z m80 -343 c45 -78 129 -161 207 -205 l57 -32 -61 -37 c-79
-48 -166 -134 -210 -209 l-34 -59 -37 61 c-45 75 -134 164 -211 209 l-57 35
57 32 c74 42 171 139 213 213 17 31 33 57 35 57 1 0 20 -29 41 -65z"/>
<path d="M267 3425 c-16 -16 -17 -85 -15 -1023 l3 -1007 29 -65 c27 -60 67
-102 483 -520 l453 -456 0 -155 c0 -169 8 -199 55 -199 47 0 55 30 55 208 0
99 -4 172 -11 185 -6 12 -215 227 -465 477 -363 364 -458 465 -476 505 l-23
50 -3 954 -2 954 42 -7 c70 -11 168 -64 231 -127 69 -69 112 -155 127 -254 5
-38 19 -279 31 -535 l20 -465 -28 -20 c-57 -41 -92 -82 -102 -123 -22 -81 -12
-98 246 -390 129 -147 246 -271 260 -277 32 -13 57 4 60 41 2 25 -30 66 -232
293 -255 287 -259 294 -207 343 54 51 111 73 192 72 134 0 123 9 617 -487 472
-473 475 -478 502 -605 7 -33 11 -185 11 -407 0 -308 2 -356 16 -369 20 -20
48 -20 68 0 14 13 16 62 16 378 0 392 4 431 56 526 17 31 176 197 472 492 437
435 448 445 506 463 101 31 215 6 289 -63 51 -48 47 -55 -208 -342 -203 -229
-235 -269 -232 -294 3 -35 25 -51 58 -42 23 6 450 482 492 547 26 40 24 120
-3 165 -12 19 -42 48 -66 65 -24 16 -44 35 -44 42 -1 80 42 958 50 1002 15 90
70 194 135 254 63 56 159 107 223 117 l42 7 -2 -954 -3 -954 -23 -50 c-18 -40
-116 -143 -487 -515 l-465 -466 0 -175 c0 -190 7 -219 55 -219 47 0 55 30 55
199 l0 156 449 450 c411 413 451 456 482 520 l34 70 3 1004 c2 928 1 1005 -14
1022 -21 23 -55 24 -149 4 -208 -43 -383 -213 -429 -416 -9 -40 -21 -201 -30
-429 -9 -201 -19 -398 -22 -438 l-6 -72 -43 38 c-58 51 -147 97 -216 112 l-56
13 -16 80 c-21 108 -59 180 -137 258 -73 74 -160 122 -250 140 l-58 11 -6 48
c-4 27 -24 84 -46 128 -85 170 -250 272 -440 272 -190 0 -355 -102 -440 -272
-22 -44 -42 -101 -46 -128 l-6 -48 -58 -11 c-90 -18 -177 -66 -251 -140 -86
-87 -124 -166 -144 -301 -5 -35 -7 -36 -74 -53 -74 -20 -167 -70 -218 -119
l-31 -30 -6 53 c-3 30 -10 178 -16 329 -16 417 -26 537 -49 603 -75 215 -257
360 -484 383 -52 5 -66 3 -80 -11z m2067 -393 c109 -51 200 -163 221 -273 l7
-35 -64 -18 c-126 -35 -253 -127 -303 -220 -11 -20 -22 -36 -25 -36 -3 0 -14
16 -25 36 -50 93 -177 185 -303 220 l-64 18 7 35 c19 103 106 216 204 265 71
37 114 46 202 42 60 -2 89 -9 143 -34z m-453 -444 c126 -58 213 -173 233 -309
l7 -46 -55 -11 c-115 -23 -251 -118 -317 -220 l-27 -43 -37 56 c-66 99 -169
172 -289 202 l-68 18 5 54 c14 136 125 266 266 313 82 27 207 21 282 -14z
m850 16 c145 -42 261 -177 276 -318 l5 -52 -53 -12 c-119 -27 -229 -101 -300
-202 l-43 -59 -31 47 c-72 105 -196 191 -311 214 l-55 11 6 41 c25 161 129
284 280 332 56 18 162 17 226 -2z m-1287 -510 c127 -63 211 -184 223 -323 6
-67 5 -71 -14 -71 -12 0 -51 -9 -88 -21 l-67 -20 -133 130 c-150 148 -212 186
-323 197 l-63 7 23 24 c35 38 75 64 137 90 48 20 69 23 151 20 81 -3 104 -7
154 -33z m888 4 c117 -54 205 -169 228 -296 15 -86 10 -97 -55 -111 -119 -27
-244 -114 -300 -210 -16 -28 -32 -50 -35 -50 -3 0 -22 27 -43 59 -62 97 -176
175 -292 201 -66 15 -73 29 -55 116 30 146 135 264 273 309 26 8 77 13 132 11
73 -2 101 -7 147 -29z m898 -5 c36 -17 80 -47 98 -66 l33 -34 -63 -7 c-113
-11 -175 -50 -328 -202 l-136 -134 -45 19 c-24 11 -61 23 -83 27 l-38 7 4 67
c9 117 73 228 171 293 81 54 129 67 232 64 79 -2 99 -6 155 -34z m-1338 -528
c66 -32 137 -98 173 -159 52 -89 67 -226 35 -311 l-11 -29 -249 249 c-138 138
-250 253 -250 257 0 16 70 27 155 25 75 -3 99 -8 147 -32z m821 24 c20 -5 37
-13 37 -17 0 -4 -112 -119 -250 -257 l-249 -249 -11 29 c-21 54 -23 137 -6
205 46 180 191 297 371 299 39 1 87 -4 108 -10z"/>
</g>
</svg>
